<?xml version="1.0" encoding="UTF-8"?>
<svg id="Calque_2" data-name="Calque 2" xmlns="http://www.w3.org/2000/svg" xmlns:xlink="http://www.w3.org/1999/xlink" viewBox="0 0 401.59 401.59">
  <defs>
    <style>
      .cls-1 {
        fill: url(#doré_2-8);
      }

      .cls-1, .cls-2, .cls-3, .cls-4, .cls-5, .cls-6, .cls-7, .cls-8, .cls-9, .cls-10, .cls-11, .cls-12, .cls-13, .cls-14, .cls-15, .cls-16, .cls-17, .cls-18, .cls-19, .cls-20 {
        stroke-width: 0px;
      }

      .cls-2 {
        fill: url(#doré_2-6);
      }

      .cls-3 {
        fill: url(#doré_2-4);
      }

      .cls-4 {
        fill: url(#dorée-3);
      }

      .cls-5 {
        fill: url(#doré_2-2);
      }

      .cls-6 {
        fill: url(#dorée-6);
      }

      .cls-7 {
        fill: url(#doré_2-7);
      }

      .cls-8 {
        fill: url(#doré_2-3);
      }

      .cls-9 {
        fill: url(#dorée-8);
      }

      .cls-10 {
        fill: url(#dorée-5);
      }

      .cls-11 {
        fill: url(#doré_2);
      }

      .cls-12 {
        fill: #383035;
      }

      .cls-13 {
        fill: url(#dorée);
      }

      .cls-14 {
        fill: url(#dorée-7);
      }

      .cls-15 {
        fill: url(#doré_2-10);
      }

      .cls-16 {
        fill: url(#doré_2-11);
      }

      .cls-17 {
        fill: url(#doré_2-5);
      }

      .cls-18 {
        fill: url(#doré_2-9);
      }

      .cls-19 {
        fill: url(#dorée-2);
      }

      .cls-21 {
        fill: url(#New_Gradient_Swatch_copy_6);
        stroke: url(#doré_2-12);
        stroke-miterlimit: 10;
        stroke-width: 2px;
      }

      .cls-20 {
        fill: url(#dorée-4);
      }
    </style>
    <linearGradient id="dorée" x1="-77.88" y1="-160.31" x2="-243.67" y2="-177.1" gradientTransform="translate(256.15 -37.67) rotate(-120.29)" gradientUnits="userSpaceOnUse">
      <stop offset="0" stop-color="#f4a600"/>
      <stop offset=".32" stop-color="#8e4420"/>
      <stop offset=".52" stop-color="#fff"/>
      <stop offset=".53" stop-color="#fbb807"/>
      <stop offset="1" stop-color="#472816"/>
    </linearGradient>
    <linearGradient id="dorée-2" data-name="dorée" x1="-77.88" y1="-160.31" x2="-243.67" y2="-177.1" gradientTransform="translate(408.56 71.31) rotate(-75.29)" xlink:href="#dorée"/>
    <linearGradient id="dorée-3" data-name="dorée" y1="-160.31" y2="-177.1" gradientTransform="translate(439.26 256.15) rotate(-30.29)" xlink:href="#dorée"/>
    <linearGradient id="dorée-4" data-name="dorée" x1="-77.88" y1="-160.31" x2="-243.67" y2="-177.1" gradientTransform="translate(330.28 408.56) rotate(14.71)" xlink:href="#dorée"/>
    <linearGradient id="dorée-5" data-name="dorée" y1="-160.31" y2="-177.1" gradientTransform="translate(145.44 439.26) rotate(59.71)" xlink:href="#dorée"/>
    <linearGradient id="dorée-6" data-name="dorée" x1="-77.88" y1="-160.31" x2="-243.67" y2="-177.1" gradientTransform="translate(-6.97 330.28) rotate(104.71)" xlink:href="#dorée"/>
    <linearGradient id="dorée-7" data-name="dorée" x1="-77.88" y1="-160.31" x2="-243.67" y2="-177.1" gradientTransform="translate(-37.67 145.44) rotate(149.71)" xlink:href="#dorée"/>
    <linearGradient id="dorée-8" data-name="dorée" x1="-77.88" y1="-160.31" x2="-243.66" y2="-177.1" gradientTransform="translate(71.31 -6.97) rotate(-165.29)" xlink:href="#dorée"/>
    <linearGradient id="doré_2" data-name="doré 2" x1="86.63" y1="173.68" x2="272.49" y2="173.68" gradientUnits="userSpaceOnUse">
      <stop offset="0" stop-color="#40341d"/>
      <stop offset=".02" stop-color="#62502c"/>
      <stop offset=".04" stop-color="#866d3c"/>
      <stop offset=".06" stop-color="#a7884a"/>
      <stop offset=".09" stop-color="#c29e56"/>
      <stop offset=".12" stop-color="#d8b060"/>
      <stop offset=".16" stop-color="#e9be67"/>
      <stop offset=".2" stop-color="#f5c76d"/>
      <stop offset=".27" stop-color="#fccd70"/>
      <stop offset=".44" stop-color="#fecf71"/>
      <stop offset="1" stop-color="#816939"/>
    </linearGradient>
    <linearGradient id="doré_2-2" data-name="doré 2" x1="111.7" y1="182.1" x2="144.04" y2="182.1" xlink:href="#doré_2"/>
    <linearGradient id="doré_2-3" data-name="doré 2" x1="220.3" y1="181.89" x2="255.41" y2="181.89" xlink:href="#doré_2"/>
    <linearGradient id="doré_2-4" data-name="doré 2" x1="126.73" y1="215.38" x2="138.05" y2="215.38" xlink:href="#doré_2"/>
    <linearGradient id="doré_2-5" data-name="doré 2" x1="140.1" y1="215.4" x2="155.94" y2="215.4" xlink:href="#doré_2"/>
    <linearGradient id="doré_2-6" data-name="doré 2" x1="158.14" y1="215.4" x2="168.54" y2="215.4" xlink:href="#doré_2"/>
    <linearGradient id="doré_2-7" data-name="doré 2" x1="167.21" y1="208.93" x2="171.37" y2="208.93" xlink:href="#doré_2"/>
    <linearGradient id="doré_2-8" data-name="doré 2" x1="172.34" y1="215.38" x2="186.54" y2="215.38" xlink:href="#doré_2"/>
    <linearGradient id="doré_2-9" data-name="doré 2" x1="188.24" y1="215.4" x2="203.88" y2="215.4" xlink:href="#doré_2"/>
    <linearGradient id="doré_2-10" data-name="doré 2" x1="206.63" y1="215.32" x2="218.81" y2="215.32" xlink:href="#doré_2"/>
    <linearGradient id="doré_2-11" data-name="doré 2" x1="220.61" y1="215.38" x2="231.93" y2="215.38" xlink:href="#doré_2"/>
    <linearGradient id="New_Gradient_Swatch_copy_6" data-name="New Gradient Swatch copy 6" x1="104.33" y1="233.36" x2="254.33" y2="233.36" gradientUnits="userSpaceOnUse">
      <stop offset="0" stop-color="#666362"/>
      <stop offset=".31" stop-color="#9a9094"/>
      <stop offset=".55" stop-color="#c7c5c5"/>
      <stop offset=".82" stop-color="#898085"/>
      <stop offset="1" stop-color="#aca9a8"/>
    </linearGradient>
    <linearGradient id="doré_2-12" data-name="doré 2" x1="104.33" y1="233.36" x2="254.33" y2="233.36" xlink:href="#doré_2"/>
  </defs>
  <g id="vecteur_cars" data-name="vecteur cars">
    <g>
      <g id="_Répétition_radiale_" data-name="&amp;lt;Répétition radiale&amp;gt;">
        <g>
          <path class="cls-13" d="M104.38,249.09l55.38,38.33c9.82,6.8,22.21,8.72,33.63,5.22l60.99-18.7c11.64-3.57,20.94-12.36,25.16-23.78l22.65-61.34c4.04-10.94,2.97-23.11-2.91-33.18l-34.41-58.92c-5.88-10.07-15.96-16.98-27.48-18.84l-64.54-10.4c-12.02-1.94-24.25,1.85-33.07,10.23l-46.24,43.94c-8.66,8.23-13.07,19.96-11.97,31.85l6.18,67.07c1.06,11.49,7.15,21.93,16.64,28.49Z"/>
          <path class="cls-12" d="M108.27,246.82l52.08,36.04c9.82,6.8,22.21,8.72,33.63,5.22l57.24-17.55c11.64-3.57,20.94-12.36,25.16-23.78l21.28-57.62c4.04-10.94,2.97-23.11-2.91-33.18l-32.38-55.43c-5.88-10.07-15.96-16.98-27.48-18.84l-60.63-9.77c-12.02-1.94-24.25,1.85-33.07,10.23l-43.4,41.25c-8.66,8.23-13.07,19.96-11.97,31.85l5.81,63.08c1.06,11.49,7.15,21.93,16.64,28.49Z"/>
        </g>
      </g>
      <g id="_Répétition_radiale_-2" data-name="&amp;lt;Répétition radiale&amp;gt;">
        <g>
          <path class="cls-19" d="M98.47,166.77l12.06,66.26c2.14,11.75,9.54,21.87,20.09,27.47l56.35,29.9c10.75,5.71,23.55,6.07,34.6.97l59.39-27.36c10.59-4.88,18.45-14.24,21.41-25.52l17.33-65.99c2.96-11.28.72-23.29-6.11-32.75l-38.29-52.99c-7.13-9.87-18.45-15.84-30.62-16.15l-63.77-1.62c-11.94-.3-23.36,4.88-30.99,14.06l-43.06,51.8c-7.38,8.88-10.45,20.56-8.38,31.92Z"/>
          <path class="cls-12" d="M102.83,167.91l11.34,62.32c2.14,11.75,9.54,21.87,20.09,27.47l52.88,28.07c10.75,5.71,23.55,6.07,34.6.97l55.79-25.7c10.59-4.88,18.45-14.24,21.41-25.52l16.3-62.09c2.96-11.28.72-23.29-6.11-32.75l-35.97-49.78c-7.13-9.87-18.45-15.84-30.62-16.15l-59.86-1.52c-11.94-.3-23.36,4.88-30.99,14.06l-40.49,48.71c-7.38,8.88-10.45,20.56-8.38,31.92Z"/>
        </g>
      </g>
      <g id="_Répétition_radiale_-3" data-name="&amp;lt;Répétition radiale&amp;gt;">
        <g>
          <path class="cls-4" d="M152.5,104.38l-38.33,55.38c-6.8,9.82-8.72,22.21-5.22,33.63l18.7,60.99c3.57,11.64,12.36,20.94,23.78,25.16l61.34,22.65c10.94,4.04,23.11,2.97,33.18-2.91l58.92-34.41c10.07-5.88,16.98-15.96,18.84-27.48l10.4-64.54c1.94-12.02-1.85-24.25-10.23-33.07l-43.94-46.24c-8.23-8.66-19.96-13.07-31.85-11.97l-67.07,6.18c-11.49,1.06-21.93,7.15-28.49,16.64Z"/>
          <path class="cls-12" d="M154.78,108.27l-36.04,52.08c-6.8,9.82-8.72,22.21-5.22,33.63l17.55,57.24c3.57,11.64,12.36,20.94,23.78,25.16l57.62,21.28c10.94,4.04,23.11,2.97,33.18-2.91l55.43-32.38c10.07-5.88,16.98-15.96,18.84-27.48l9.77-60.63c1.94-12.02-1.85-24.25-10.23-33.07l-41.25-43.4c-8.23-8.66-19.96-13.07-31.85-11.97l-63.08,5.81c-11.49,1.06-21.93,7.15-28.49,16.64Z"/>
        </g>
      </g>
      <g id="_Répétition_radiale_-4" data-name="&amp;lt;Répétition radiale&amp;gt;">
        <g>
          <path class="cls-20" d="M234.82,98.47l-66.26,12.06c-11.75,2.14-21.87,9.54-27.47,20.09l-29.9,56.35c-5.71,10.75-6.07,23.55-.97,34.6l27.36,59.39c4.88,10.59,14.24,18.45,25.52,21.41l65.99,17.33c11.28,2.96,23.29.72,32.75-6.11l52.99-38.29c9.87-7.13,15.84-18.45,16.15-30.62l1.62-63.77c.3-11.94-4.88-23.36-14.06-30.99l-51.8-43.06c-8.88-7.38-20.56-10.45-31.92-8.38Z"/>
          <path class="cls-12" d="M233.68,102.83l-62.32,11.34c-11.75,2.14-21.87,9.54-27.47,20.09l-28.07,52.88c-5.71,10.75-6.07,23.55-.97,34.6l25.7,55.79c4.88,10.59,14.24,18.45,25.52,21.41l62.09,16.3c11.28,2.96,23.29.72,32.75-6.11l49.78-35.97c9.87-7.13,15.84-18.45,16.15-30.62l1.52-59.86c.3-11.94-4.88-23.36-14.06-30.99l-48.71-40.49c-8.88-7.38-20.56-10.45-31.92-8.38Z"/>
        </g>
      </g>
      <g id="_Répétition_radiale_-5" data-name="&amp;lt;Répétition radiale&amp;gt;">
        <g>
          <path class="cls-10" d="M297.21,152.5l-55.38-38.33c-9.82-6.8-22.21-8.72-33.63-5.22l-60.99,18.7c-11.64,3.57-20.94,12.36-25.16,23.78l-22.65,61.34c-4.04,10.94-2.97,23.11,2.91,33.18l34.41,58.92c5.88,10.07,15.96,16.98,27.48,18.84l64.54,10.4c12.02,1.94,24.25-1.85,33.07-10.23l46.24-43.94c8.66-8.23,13.07-19.96,11.97-31.85l-6.18-67.07c-1.06-11.49-7.15-21.93-16.64-28.49Z"/>
          <path class="cls-12" d="M293.32,154.78l-52.08-36.04c-9.82-6.8-22.21-8.72-33.63-5.22l-57.24,17.55c-11.64,3.57-20.94,12.36-25.16,23.78l-21.28,57.62c-4.04,10.94-2.97,23.11,2.91,33.18l32.38,55.43c5.88,10.07,15.96,16.98,27.48,18.84l60.63,9.77c12.02,1.94,24.25-1.85,33.07-10.23l43.4-41.25c8.66-8.23,13.07-19.96,11.97-31.85l-5.81-63.08c-1.06-11.49-7.15-21.93-16.64-28.49Z"/>
        </g>
      </g>
      <g id="_Répétition_radiale_-6" data-name="&amp;lt;Répétition radiale&amp;gt;">
        <g>
          <path class="cls-6" d="M303.12,234.82l-12.06-66.26c-2.14-11.75-9.54-21.87-20.09-27.47l-56.35-29.9c-10.75-5.71-23.55-6.07-34.6-.97l-59.39,27.36c-10.59,4.88-18.45,14.24-21.41,25.52l-17.33,65.99c-2.96,11.28-.72,23.29,6.11,32.75l38.29,52.99c7.13,9.87,18.45,15.84,30.62,16.15l63.77,1.62c11.94.3,23.36-4.88,30.99-14.06l43.06-51.8c7.38-8.88,10.45-20.56,8.38-31.92Z"/>
          <path class="cls-12" d="M298.76,233.68l-11.34-62.32c-2.14-11.75-9.54-21.87-20.09-27.47l-52.88-28.07c-10.75-5.71-23.55-6.07-34.6-.97l-55.79,25.7c-10.59,4.88-18.45,14.24-21.41,25.52l-16.3,62.09c-2.96,11.28-.72,23.29,6.11,32.75l35.97,49.78c7.13,9.87,18.45,15.84,30.62,16.15l59.86,1.52c11.94.3,23.36-4.88,30.99-14.06l40.49-48.71c7.38-8.88,10.45-20.56,8.38-31.92Z"/>
        </g>
      </g>
      <g id="_Répétition_radiale_-7" data-name="&amp;lt;Répétition radiale&amp;gt;">
        <g>
          <path class="cls-14" d="M249.09,297.21l38.33-55.38c6.8-9.82,8.72-22.21,5.22-33.63l-18.7-60.99c-3.57-11.64-12.36-20.94-23.78-25.16l-61.34-22.65c-10.94-4.04-23.11-2.97-33.18,2.91l-58.92,34.41c-10.07,5.88-16.98,15.96-18.84,27.48l-10.4,64.54c-1.94,12.02,1.85,24.25,10.23,33.07l43.94,46.24c8.23,8.66,19.96,13.07,31.85,11.97l67.07-6.18c11.49-1.06,21.93-7.15,28.49-16.64Z"/>
          <path class="cls-12" d="M246.82,293.32l36.04-52.08c6.8-9.82,8.72-22.21,5.22-33.63l-17.55-57.24c-3.57-11.64-12.36-20.94-23.78-25.16l-57.62-21.28c-10.94-4.04-23.11-2.97-33.18,2.91l-55.43,32.38c-10.07,5.88-16.98,15.96-18.84,27.48l-9.77,60.63c-1.94,12.02,1.85,24.25,10.23,33.07l41.25,43.4c8.23,8.66,19.96,13.07,31.85,11.97l63.08-5.81c11.49-1.06,21.93-7.15,28.49-16.64Z"/>
        </g>
      </g>
      <g id="_Répétition_radiale_-8" data-name="&amp;lt;Répétition radiale&amp;gt;">
        <g>
          <path class="cls-9" d="M166.77,303.12l66.26-12.06c11.75-2.14,21.87-9.54,27.47-20.09l29.9-56.35c5.71-10.75,6.07-23.55.97-34.6l-27.36-59.39c-4.88-10.59-14.24-18.45-25.52-21.41l-65.99-17.33c-11.28-2.96-23.29-.72-32.75,6.11l-52.99,38.29c-9.87,7.13-15.84,18.45-16.15,30.62l-1.62,63.77c-.3,11.94,4.88,23.36,14.06,30.99l51.8,43.06c8.88,7.38,20.56,10.45,31.92,8.38Z"/>
          <path class="cls-12" d="M167.91,298.76l62.32-11.34c11.75-2.14,21.87-9.54,27.47-20.09l28.07-52.88c5.71-10.75,6.07-23.55.97-34.6l-25.7-55.79c-4.88-10.59-14.24-18.45-25.52-21.41l-62.09-16.3c-11.28-2.96-23.29-.72-32.75,6.11l-49.78,35.97c-9.87,7.13-15.84,18.45-16.15,30.62l-1.52,59.86c-.3,11.94,4.88,23.36,14.06,30.99l48.71,40.49c8.88,7.38,20.56,10.45,31.92,8.38Z"/>
        </g>
      </g>
    </g>
    <g>
      <path class="cls-11" d="M146.18,173.85s-38.16-3.38-59.55,13.91c0,0,12.04-14.34,42.45-16.88,13.24-5.12,26.72-11.41,42.23-12.99,15.51-1.57,42.04,1.89,57.81,6.94,0,0-27.94,7.88-42.8,6.9,10.91-.42,24.82-6.62,24.82-6.62-17.88-5.25-30.03-5.95-43.07-3.7-13.03,2.25-33.71,9.8-33.71,9.8,2.63.99,11.81,2.64,11.81,2.64ZM265.86,171.92s5.15-.76,6.63-2.99c-6.53,1.67-29.46-.17-36.54-2.33-9.93,4.95-35.27,8.48-55.45,10.01,48.46-2.17,81.51-16.22,90.76,13.26,1.97-10.4-5.39-17.95-5.39-17.95Z"/>
      <path class="cls-5" d="M111.7,185.35c3.32-4.42,9.39-7.32,16.27-7.19s12.93,3.3,16.07,7.9l-4.36-.08c-2.95-3.73-8.06-6.25-13.92-6.36-5.81-.11-10.97,2.17-14.06,5.73Z"/>
      <path class="cls-8" d="M220.3,185.09c3.6-4.41,10.18-7.3,17.65-7.16s14.04,3.32,17.46,7.92l-4.73-.09c-3.21-3.73-8.76-6.26-15.12-6.38s-11.91,2.15-15.26,5.71Z"/>
    </g>
  </g>
  <g id="Logotype">
    <g>
      <path class="cls-3" d="M127.34,222.01c1.08.69,2.66,1.26,4.33,1.26,2.47,0,3.91-1.35,3.91-3.29,0-1.8-1-2.83-3.52-3.84-3.05-1.12-4.94-2.75-4.94-5.47,0-3.01,2.41-5.24,6.05-5.24,1.91,0,3.3.46,4.13.94l-.67,2.03c-.61-.34-1.86-.92-3.55-.92-2.55,0-3.52,1.58-3.52,2.89,0,1.8,1.14,2.69,3.72,3.72,3.16,1.26,4.77,2.83,4.77,5.67,0,2.98-2.14,5.55-6.55,5.55-1.8,0-3.77-.54-4.77-1.23l.61-2.09Z"/>
      <path class="cls-17" d="M153.06,225.04c-.53-.54-1.03-1.09-1.75-1.89-1.61,1.55-3.41,2.2-5.46,2.2-3.63,0-5.74-2.52-5.74-5.41,0-2.63,1.53-4.44,3.66-5.64v-.09c-.97-1.26-1.55-2.66-1.55-4.04,0-2.35,1.64-4.75,4.74-4.75,2.33,0,4.13,1.6,4.13,4.09,0,2.03-1.14,3.63-4.11,5.15v.09c1.58,1.89,3.36,4.01,4.55,5.38.86-1.35,1.44-3.21,1.8-5.64h2.22c-.5,3.03-1.3,5.44-2.69,7.13,1,1.09,1.97,2.18,3.08,3.41h-2.88ZM150.12,221.72c-1.11-1.26-3.19-3.61-5.27-6.07-1,.66-2.41,1.89-2.41,3.92,0,2.2,1.58,3.89,3.83,3.89,1.61,0,2.97-.74,3.86-1.75ZM144.43,209.96c0,1.37.61,2.43,1.41,3.46,1.89-1.12,3.11-2.15,3.11-3.78,0-1.17-.64-2.49-2.16-2.49s-2.36,1.32-2.36,2.8Z"/>
      <path class="cls-2" d="M158.14,205.75h2.41v17.2h7.99v2.09h-10.4v-19.29Z"/>
      <path class="cls-7" d="M171.37,205.43c-.64,2.4-1.83,5.47-2.61,6.78l-1.55.2c.61-1.69,1.33-4.67,1.64-6.73l2.52-.26Z"/>
      <path class="cls-1" d="M186.52,224.41c-.89.46-2.66.92-4.94.92-5.27,0-9.24-3.43-9.24-9.76s3.97-10.13,9.76-10.13c2.33,0,3.8.52,4.44.86l-.58,2.03c-.92-.46-2.22-.8-3.77-.8-4.38,0-7.3,2.89-7.3,7.96,0,4.72,2.64,7.76,7.18,7.76,1.47,0,2.97-.31,3.94-.8l.5,1.97Z"/>
      <path class="cls-18" d="M192.67,218.97l-1.94,6.07h-2.5l6.35-19.29h2.91l6.38,19.29h-2.58l-2-6.07h-6.63ZM198.81,217.03l-1.83-5.55c-.42-1.26-.69-2.4-.97-3.52h-.06c-.28,1.15-.58,2.32-.94,3.49l-1.83,5.58h5.63Z"/>
      <path class="cls-15" d="M206.63,206.01c1.22-.26,2.97-.4,4.63-.4,2.58,0,4.24.49,5.41,1.57.94.86,1.47,2.18,1.47,3.66,0,2.55-1.55,4.24-3.52,4.92v.09c1.44.51,2.3,1.89,2.75,3.89.61,2.69,1.05,4.55,1.44,5.3h-2.5c-.31-.54-.72-2.2-1.25-4.61-.55-2.66-1.55-3.66-3.75-3.75h-2.27v8.36h-2.41v-19.04ZM209.04,214.79h2.47c2.58,0,4.22-1.46,4.22-3.66,0-2.49-1.75-3.58-4.3-3.61-1.17,0-2,.11-2.39.23v7.04Z"/>
      <path class="cls-16" d="M221.22,222.01c1.08.69,2.66,1.26,4.33,1.26,2.47,0,3.91-1.35,3.91-3.29,0-1.8-1-2.83-3.52-3.84-3.05-1.12-4.94-2.75-4.94-5.47,0-3.01,2.41-5.24,6.05-5.24,1.91,0,3.3.46,4.13.94l-.67,2.03c-.61-.34-1.86-.92-3.55-.92-2.55,0-3.52,1.58-3.52,2.89,0,1.8,1.14,2.69,3.72,3.72,3.16,1.26,4.77,2.83,4.77,5.67,0,2.98-2.14,5.55-6.55,5.55-1.8,0-3.77-.54-4.77-1.23l.61-2.09Z"/>
    </g>
    <line class="cls-21" x1="104.33" y1="233.36" x2="254.33" y2="233.36"/>
  </g>
</svg>